<?xml version="1.0" standalone="no"?>
<!DOCTYPE svg PUBLIC "-//W3C//DTD SVG 20010904//EN"
 "http://www.w3.org/TR/2001/REC-SVG-20010904/DTD/svg10.dtd">
<svg version="1.0" xmlns="http://www.w3.org/2000/svg"
 width="180.000000pt" height="180.000000pt" viewBox="0 0 180.000000 180.000000"
 preserveAspectRatio="xMidYMid meet">
<metadata>
Created by potrace 1.11, written by Peter Selinger 2001-2013
</metadata>
<g transform="translate(0.000000,180.000000) scale(0.100000,-0.100000)"
fill="#000000" stroke="none">
<path d="M657 1212 c-15 -16 -17 -52 -17 -304 0 -263 1 -286 18 -301 16 -15
52 -17 304 -17 263 0 286 1 301 18 14 15 17 42 17 158 l0 139 -163 163 -162
162 -141 0 c-124 0 -143 -2 -157 -18z m233 -194 l1 -173 84 -105 85 -105 -176
-3 c-122 -2 -181 1 -190 9 -19 16 -21 518 -2 537 8 8 46 12 105 12 l93 0 0
-172z m195 12 l140 -140 -143 0 -142 0 0 140 c0 77 1 140 3 140 1 0 65 -63
142 -140z"/>
</g>
</svg>
