<svg width="16" height="16" viewBox="0 0 16 16" fill="none" xmlns="http://www.w3.org/2000/svg">
<path d="M5.08545 12C5.29135 12.5826 5.84699 13.0001 6.50012 13.0001H11.5001C12.3285 13.0001 13.0001 12.3285 13.0001 11.5001V7.50007C13.0001 6.84699 12.5828 6.29139 12.0002 6.08545V11.5C12.0002 11.7761 11.7763 12 11.5002 12H5.08545Z" fill="#4E5860"/>
<path opacity="0.54" d="M6 8H10V10H8L6 8Z" fill="#6F767D"/>
<path d="M3.5 4V10C3.5 10.2761 3.72386 10.5 4 10.5H10C10.2761 10.5 10.5 10.2761 10.5 10V7.41421C10.5 7.28161 10.4473 7.15443 10.3536 7.06066L6.93934 3.64645C6.84557 3.55268 6.71839 3.5 6.58579 3.5H4C3.72386 3.5 3.5 3.72386 3.5 4Z" stroke="#1B2733"/>
<path d="M6.5 3.5V7.5H10.5" stroke="#1B2733"/>
</svg>
