<svg xmlns="http://www.w3.org/2000/svg" width="16" height="16" viewBox="0 0 16 16">
  <g fill="none" fill-rule="evenodd">
    <path fill="#1B2733" d="M11,5 L5,5 L5,11 L11,11 L11,5 Z M5,4 C4.44772,4 4,4.44772 4,5 L4,11 C4,11.5523 4.44772,12 5,12 L11,12 C11.5523,12 12,11.5523 12,11 L12,5 C12,4.44772 11.5523,4 11,4 L5,4 Z"/>
    <polygon fill="#6F767D" fill-rule="nonzero" points="6 3 7 3 7 5 9 5 9 3 10 3 10 5 11 5 11 8 5 8 5 5 6 5"/>
    <polygon fill="#1B2733" fill-rule="nonzero" points="5 7 11 7 11 8 5 8" opacity=".396"/>
  </g>
</svg>
