<svg xmlns="http://www.w3.org/2000/svg" width="16" height="16" viewBox="0 0 16 16">
  <g fill="none" fill-rule="evenodd">
    <path fill="#6F767D" fill-rule="nonzero" d="M5.08545,12 C5.29137,12.5826 5.84699,13 6.5001,13 L11.5001,13 C12.3285,13 13.0001,12.3284 13.0001,11.5 L13.0001,6.49997 C13.0001,5.84686 12.5827,5.29125 12.0001,5.08533 L12.0001,11.5 C12.0001,11.7761 11.7762,12 11.5001,12 L5.08545,12 Z"/>
    <path fill="#1B2733" d="M10,4 L4,4 L4,10 L10,10 L10,4 Z M4,3 C3.44772,3 3,3.44772 3,4 L3,10 C3,10.5523 3.44772,11 4,11 L10,11 C10.5523,11 11,10.5523 11,10 L11,4 C11,3.44772 10.5523,3 10,3 L4,3 Z"/>
    <polygon fill="#6F767D" fill-rule="nonzero" points="5 2 6 2 6 4 8 4 8 2 9 2 9 4 10 4 10 7 4 7 4 4 5 4"/>
    <polygon fill="#1B2733" fill-rule="nonzero" points="4 6 10 6 10 7 4 7" opacity=".396"/>
  </g>
</svg>
