<svg width="16" height="16" viewBox="0 0 16 16" fill="none" xmlns="http://www.w3.org/2000/svg">
<path d="M7.5 14.5C7.5 14.5 12 10.5 12 6.5C12 4.01472 9.98528 2 7.5 2V14.5Z" fill="#CED0D3"/>
<path d="M11.5 6.5C11.5 8.33165 10.4591 10.2212 9.35 11.7C8.80287 12.4295 8.25471 13.0387 7.8432 13.4654C7.70493 13.6088 7.58241 13.7313 7.48095 13.8304C7.38417 13.7452 7.26912 13.6411 7.14019 13.5193C6.73186 13.1337 6.18737 12.574 5.64375 11.8793C4.54794 10.4791 3.5 8.58759 3.5 6.5C3.5 4.29086 5.29086 2.5 7.5 2.5C9.70914 2.5 11.5 4.29086 11.5 6.5Z" stroke="#1B2733"/>
<circle cx="7.5" cy="6.5" r="1.5" fill="#6F767D"/>
</svg>
