<svg width="16" height="16" fill="none" xmlns="http://www.w3.org/2000/svg"><path d="M4.759 8.913a5.677 5.677 0 0 0-1.348 1.326c-.288.406-.083.931.367 1.145.985.468 2.53 1.116 3.722 1.116 1.193 0 2.737-.648 3.723-1.116.45-.214.655-.739.367-1.145a5.678 5.678 0 0 0-1.348-1.326A3.986 3.986 0 0 1 7.5 10 3.986 3.986 0 0 1 4.76 8.913z" fill="#6F767D"/><mask id="a" fill="#fff"><path fill-rule="evenodd" clip-rule="evenodd" d="M7.5 8a2 2 0 1 0 0-4 2 2 0 0 0 0 4zm0 1a3 3 0 1 0 0-6 3 3 0 0 0 0 6z"/></mask><path fill-rule="evenodd" clip-rule="evenodd" d="M7.5 8a2 2 0 1 0 0-4 2 2 0 0 0 0 4zm0 1a3 3 0 1 0 0-6 3 3 0 0 0 0 6z" fill="#1B2733"/><path d="M8.5 6a1 1 0 0 1-1 1v2a3 3 0 0 0 3-3h-2zm-1-1a1 1 0 0 1 1 1h2a3 3 0 0 0-3-3v2zm-1 1a1 1 0 0 1 1-1V3a3 3 0 0 0-3 3h2zm1 1a1 1 0 0 1-1-1h-2a3 3 0 0 0 3 3V7zm2-1a2 2 0 0 1-2 2v2a4 4 0 0 0 4-4h-2zm-2-2a2 2 0 0 1 2 2h2a4 4 0 0 0-4-4v2zm-2 2a2 2 0 0 1 2-2V2a4 4 0 0 0-4 4h2zm2 2a2 2 0 0 1-2-2h-2a4 4 0 0 0 4 4V8z" fill="#1B2733" mask="url(#a)"/><circle opacity=".34" cx="7.5" cy="6" r="2" fill="#6F767D"/></svg>