<svg width="331" height="128" viewBox="0 0 331 128" fill="none" xmlns="http://www.w3.org/2000/svg">
<rect width="331" height="128" fill="white"/>
<path d="M32 48C32 43.5817 35.5817 40 40 40H88C92.4183 40 96 43.5817 96 48V62C96 62.5523 95.5523 63 95 63H33C32.4477 63 32 62.5523 32 62V48Z" fill="#6F767D"/>
<rect x="34" y="42" width="60" height="52" rx="6" stroke="#1B2733" stroke-width="4"/>
<rect x="48.5" y="32.5" width="6" height="15" rx="1.5" fill="#6F767D" stroke="#6F767D"/>
<rect opacity="0.84" x="95" y="60" width="3" height="62" transform="rotate(90 95 60)" fill="#1B2733"/>
<rect x="73.5" y="32.5" width="6" height="15" rx="1.5" fill="#6F767D" stroke="#6F767D"/>
<rect opacity="0.54" x="36" y="56" width="56" height="7" fill="#6F767D"/>
</svg>
