<svg width="331" height="128" viewBox="0 0 331 128" fill="none" xmlns="http://www.w3.org/2000/svg">
<rect width="331" height="128" fill="white"/>
<path d="M41.9959 71.9078C38.1154 74.6309 35.0112 77.8844 32.8981 80.8628C30.9546 83.6022 32.3406 87.1434 35.3744 88.5849C42.0245 91.7445 52.4499 96.1201 60.5 96.1201C68.5501 96.1201 78.9755 91.7445 85.6255 88.5849C88.6594 87.1434 90.0454 83.6022 88.1019 80.8628C85.9888 77.8844 82.8846 74.6309 79.0041 71.9078C74 68.3963 67.6614 60.5 60.5 60.5C53.3386 60.5 45.8764 69.1848 41.9959 71.9078Z" fill="#6F767D"/>
<path fill-rule="evenodd" clip-rule="evenodd" d="M60.5 76C73.4787 76 84 65.4787 84 52.5C84 39.5213 73.4787 29 60.5 29C47.5213 29 37 39.5213 37 52.5C37 65.4787 47.5213 76 60.5 76Z" fill="white"/>
<path d="M78.7477 52.2485C78.7477 62.3268 70.5776 70.497 60.4992 70.497C50.4209 70.497 42.2507 62.3268 42.2507 52.2485C42.2507 42.1701 50.4209 34 60.4992 34C70.5776 34 78.7477 42.1701 78.7477 52.2485Z" fill="#B1B5B9" stroke="#1B2733" stroke-width="4"/>
</svg>
